Coordinates
version=1
nRows=32
nColumns=12
inDegrees=yes

Units are S.I. units (second, meters, Newtons, ...)
Angles are in degrees

endheader
time	SC_y	SC_z	SC_x	AC_y	AC_z	AC_x	GH_y	GH_z	GH_yy	EL_x	PS_y
       0.0              -25.66          34.05          79.68          57.56          -16.9          3.436         -103.5          74.31         -77.58          135.6          91.72
   0.01567              -25.67          34.05          79.67          57.56          -16.9          3.439         -103.5          74.31          -77.6          135.6          91.72
   0.03134              -25.67          34.05          79.66          57.56          -16.9          3.441         -103.5          74.31         -77.61          135.6          91.71
     0.047              -25.67          34.05          79.65          57.56         -16.89          3.443         -103.5          74.31         -77.63          135.5          91.71
   0.06267              -25.67          34.05          79.64          57.56         -16.89          3.446         -103.5          74.31         -77.64          135.5           91.7
   0.07834              -25.68          34.05          79.63          57.56         -16.88          3.448         -103.5          74.32         -77.66          135.5          91.69
   0.09401              -25.68          34.05          79.61          57.56         -16.88          3.451         -103.5          74.32         -77.68          135.5          91.69
    0.1097              -25.69          34.05           79.6          57.56         -16.87          3.454         -103.4          74.32          -77.7          135.4          91.68
    0.1253              -25.69          34.05          79.58          57.55         -16.87          3.458         -103.4          74.32         -77.72          135.4          91.67
     0.141              -25.69          34.04          79.57          57.55         -16.86          3.461         -103.4          74.33         -77.74          135.4          91.67
    0.1567               -25.7          34.04          79.55          57.55         -16.86          3.465         -103.4          74.33         -77.76          135.4          91.66
    0.1724              -25.71          34.04          79.53          57.55         -16.85          3.469         -103.4          74.33         -77.79          135.3          91.65
     0.188              -25.71          34.04          79.51          57.55         -16.84          3.474         -103.3          74.34         -77.82          135.3          91.64
    0.2037              -25.72          34.04          79.49          57.55         -16.84          3.478         -103.3          74.34         -77.85          135.2          91.63
    0.2194              -25.72          34.03          79.46          57.55         -16.83          3.484         -103.3          74.34         -77.88          135.2          91.61
     0.235              -25.73          34.03          79.44          57.54         -16.82          3.489         -103.3          74.35         -77.91          135.1           91.6
    0.2507              -25.74          34.03          79.41          57.54         -16.81          3.495         -103.2          74.35         -77.95          135.1          91.59
    0.2664              -25.75          34.03          79.38          57.54          -16.8          3.502         -103.2          74.36         -77.99          135.0          91.57
     0.282              -25.76          34.02          79.34          57.54         -16.79          3.509         -103.2          74.36         -78.04          135.0          91.56
    0.2977              -25.77          34.02           79.3          57.53         -16.78          3.517         -103.1          74.37         -78.09          134.9          91.54
    0.3134              -25.78          34.01          79.26          57.53         -16.76          3.526         -103.1          74.38         -78.14          134.8          91.52
     0.329              -25.79          34.01          79.22          57.53         -16.75          3.535         -103.1          74.38          -78.2          134.7           91.5
    0.3447               -25.8          34.01          79.17          57.52         -16.73          3.546         -103.0          74.39         -78.27          134.6          91.47
    0.3604              -25.82           34.0          79.11          57.52         -16.72          3.558         -102.9           74.4         -78.35          134.5          91.45
     0.376              -25.84          33.99          79.05          57.52          -16.7          3.571         -102.9          74.41         -78.43          134.4          91.42
    0.3917              -25.86          33.99          78.98          57.51         -16.67          3.585         -102.8          74.42         -78.52          134.3          91.38
    0.4074              -25.88          33.98          78.91          57.51         -16.65          3.602         -102.7          74.44         -78.62          134.1          91.35
     0.423               -25.9          33.97          78.82           57.5         -16.62           3.62         -102.6          74.45         -78.74          134.0           91.3
    0.4387              -25.93          33.96          78.72          57.49         -16.59          3.641         -102.5          74.47         -78.87          133.8          91.26
    0.4544              -25.96          33.95          78.61          57.48         -16.55          3.664         -102.4          74.48         -79.02          133.6           91.2
      0.47              -25.99          33.94          78.48          57.48         -16.51          3.691         -102.3           74.5         -79.18          133.3          91.14
    0.4857              -26.03          33.93          78.34          57.47         -16.46          3.722         -102.2          74.53         -79.38          133.1          91.07
